<svg width="64" height="64" viewBox="0 0 64 64" fill="none" xmlns="http://www.w3.org/2000/svg">
  <path d="M18.0002 58.6677C16.8956 58.6677 16.0002 57.7725 16.0002 56.6677C16.0002 55.6552 16.7526 54.8184 17.7288 54.6861L18.0002 54.6677L22.6642 54.6667V48.0053L11.3335 48.0061C8.15787 48.0061 5.55846 45.5389 5.34734 42.4168L5.3335 42.0061V34.668H9.3335V42.0061C9.3335 43.0187 10.0859 43.8555 11.0621 43.9877L11.3335 44.0061H52.6636C53.6762 44.0061 54.513 43.2536 54.6455 42.2773L54.6636 42.0061V34.668H58.6636V42.0061C58.6636 45.1816 56.1967 47.7811 53.0746 47.9923L52.6636 48.0061L41.3308 48.0053V54.6667L46.0002 54.6677C47.1047 54.6677 48.0002 55.5632 48.0002 56.6677C48.0002 57.6803 47.2476 58.5171 46.2716 58.6496L46.0002 58.6677H18.0002ZM37.3282 48.0053H26.6615L26.6642 54.6677H37.3308L37.3282 48.0053ZM9.3335 25.3346H5.3335V14C5.3335 10.8244 7.80059 8.22496 10.9227 8.01384L11.3335 8H52.6636C55.8394 8 58.4388 10.4671 58.6498 13.5892L58.6636 14V25.3346H54.6636V14C54.6636 12.9875 53.9114 12.1507 52.9351 12.0183L52.6636 12H11.3335C10.321 12 9.48419 12.7524 9.35176 13.7286L9.3335 14V25.3346ZM25.8571 17.2583C25.559 16.513 24.8442 16.0181 24.0416 16.0015C23.2391 15.9849 22.5043 16.4497 22.1756 17.182L17.3185 28.0013H7.3335C6.22894 28.0013 5.3335 28.8968 5.3335 30.0013C5.3335 31.1059 6.22894 32.0013 7.3335 32.0013H18.6129C19.4006 32.0013 20.1149 31.5389 20.4375 30.8205L23.894 23.1209L30.1431 38.744C30.4263 39.4517 31.0871 39.9371 31.8471 39.9955C32.6071 40.0539 33.3343 39.6749 33.722 39.0187L40.809 27.0251L43.6951 31.1483C44.0692 31.6829 44.681 32.0013 45.3335 32.0013H56.6668C57.7714 32.0013 58.6668 31.1059 58.6668 30.0013C58.6668 28.8968 57.7714 28.0013 56.6668 28.0013H46.3748L42.3052 22.1875C41.9154 21.6305 41.2692 21.3097 40.5898 21.3359C39.9106 21.3621 39.2908 21.7316 38.945 22.317L32.3468 33.4829L25.8571 17.2583Z" fill="#326789"/>
</svg>
