<svg width="64" height="64" viewBox="0 0 64 64" fill="none" xmlns="http://www.w3.org/2000/svg">
  <path d="M39.333 40C41.9103 40 43.9997 42.0893 43.9997 44.6667L43.9967 47.2323C44.3079 53.0699 39.9674 56.024 32.1778 56.024C24.4206 56.024 19.9997 53.1179 19.9997 47.3333V44.6667C19.9997 42.0893 22.089 40 24.6663 40H39.333ZM39.333 44H24.6663C24.2982 44 23.9997 44.2984 23.9997 44.6667V47.3333C23.9997 50.4699 26.3641 52.024 32.1778 52.024C37.9589 52.024 40.1663 50.5213 39.9997 47.3387V44.6667C39.9997 44.2984 39.7013 44 39.333 44ZM9.99967 26.6667L21.669 26.6669C21.4497 27.5192 21.333 28.4125 21.333 29.3333C21.333 29.7843 21.361 30.2288 21.4153 30.6648L9.99967 30.6667C9.63149 30.6667 9.33301 30.9651 9.33301 31.3333V34C9.33301 37.1365 11.6975 38.6907 17.5111 38.6907C18.7428 38.6907 19.8124 38.6227 20.7312 38.4845C19.2241 39.4392 18.0942 40.9307 17.6029 42.6885L17.5111 42.6907C9.75397 42.6907 5.33301 39.7845 5.33301 34V31.3333C5.33301 28.756 7.42234 26.6667 9.99967 26.6667ZM53.9997 26.6667C56.577 26.6667 58.6663 28.756 58.6663 31.3333L58.6634 33.8989C58.9746 39.7365 54.6341 42.6907 46.8445 42.6907L46.3957 42.6861C45.8906 40.8805 44.7117 39.3565 43.1471 38.4021C44.1783 38.5955 45.4058 38.6907 46.8445 38.6907C52.6255 38.6907 54.833 37.188 54.6663 34.0053V31.3333C54.6663 30.9651 54.3679 30.6667 53.9997 30.6667L42.5842 30.6645C42.6383 30.2285 42.6663 29.7843 42.6663 29.3333C42.6663 28.4125 42.5498 27.5192 42.3303 26.6669L53.9997 26.6667ZM31.9997 21.3333C36.4181 21.3333 39.9997 24.9151 39.9997 29.3333C39.9997 33.7517 36.4181 37.3333 31.9997 37.3333C27.5813 37.3333 23.9997 33.7517 23.9997 29.3333C23.9997 24.9151 27.5813 21.3333 31.9997 21.3333ZM31.9997 25.3333C29.7906 25.3333 27.9997 27.1243 27.9997 29.3333C27.9997 31.5424 29.7906 33.3333 31.9997 33.3333C34.2087 33.3333 35.9997 31.5424 35.9997 29.3333C35.9997 27.1243 34.2087 25.3333 31.9997 25.3333ZM17.333 8C21.7513 8 25.333 11.5817 25.333 16C25.333 20.4183 21.7513 24 17.333 24C12.9147 24 9.33301 20.4183 9.33301 16C9.33301 11.5817 12.9147 8 17.333 8ZM46.6663 8C51.0847 8 54.6663 11.5817 54.6663 16C54.6663 20.4183 51.0847 24 46.6663 24C42.2479 24 38.6663 20.4183 38.6663 16C38.6663 11.5817 42.2479 8 46.6663 8ZM17.333 12C15.1239 12 13.333 13.7909 13.333 16C13.333 18.2091 15.1239 20 17.333 20C19.5422 20 21.333 18.2091 21.333 16C21.333 13.7909 19.5422 12 17.333 12ZM46.6663 12C44.4573 12 42.6663 13.7909 42.6663 16C42.6663 18.2091 44.4573 20 46.6663 20C48.8754 20 50.6663 18.2091 50.6663 16C50.6663 13.7909 48.8754 12 46.6663 12Z" fill="#326789"/>
</svg>
