<svg width="24" height="24" viewBox="0 0 24 24" fill="none" xmlns="http://www.w3.org/2000/svg">
    <rect width="24" height="24" rx="12" fill="white"/>
    <path fill-rule="evenodd" clip-rule="evenodd" d="M19.3081 12.4658C19.3081 11.9482 19.2616 11.4505 19.1753 10.9727H12.3V13.7964H16.2288C16.0596 14.7089 15.5452 15.4821 14.7721 15.9997V17.8313H17.1313C18.5117 16.5605 19.3081 14.689 19.3081 12.4658Z" fill="#4285F4"/>
    <path fill-rule="evenodd" clip-rule="evenodd" d="M12.3002 19.6C14.2712 19.6 15.9236 18.9463 17.1314 17.8314L14.7722 15.9998C14.1185 16.4378 13.2823 16.6966 12.3002 16.6966C10.3988 16.6966 8.78952 15.4125 8.21548 13.687H5.77661V15.5784C6.97779 17.9641 9.44652 19.6 12.3002 19.6Z" fill="#34A853"/>
    <path fill-rule="evenodd" clip-rule="evenodd" d="M8.21532 13.6871C8.06932 13.2491 7.98636 12.7812 7.98636 12.3001C7.98636 11.819 8.06932 11.3511 8.21532 10.9131V9.02173H5.77645C5.28205 10.0072 5 11.1221 5 12.3001C5 13.478 5.28205 14.593 5.77645 15.5785L8.21532 13.6871Z" fill="#FBBC05"/>
    <path fill-rule="evenodd" clip-rule="evenodd" d="M12.3002 7.90341C13.3719 7.90341 14.3342 8.27173 15.0908 8.99509L17.1845 6.90132C15.9203 5.72336 14.2678 5 12.3002 5C9.44652 5 6.97779 6.63586 5.77661 9.02164L8.21548 10.913C8.78952 9.18755 10.3988 7.90341 12.3002 7.90341Z" fill="#EA4335"/>
</svg>
