<svg width="396" height="320" viewBox="0 0 396 320" fill="none" xmlns="http://www.w3.org/2000/svg">
    <g clip-path="url(#clip0_183_1833)">
        <path d="M316.137 58.2888C314.08 80.8711 308.219 104.683 299.028 127.658C287.662 156.07 272.133 181.095 254.12 200.028L253.12 199.159C271.046 180.318 286.505 155.403 297.823 127.109C308.052 101.54 314.137 74.9311 315.426 50.1716L316.703 50.3846C316.568 52.9996 316.379 55.6343 316.137 58.2888Z" fill="#F2F2F2"/>
        <path d="M324.33 189.442C299.029 229.547 268.333 258.201 237.897 270.127L237.282 269.002C267.507 257.159 298.023 228.651 323.208 188.73L324.33 189.442Z" fill="#F2F2F2"/>
        <path d="M315.523 86.4046C313.466 108.987 307.605 132.799 298.414 155.774C287.048 184.186 271.519 209.211 253.506 228.143L252.506 227.275C270.432 208.433 285.891 183.519 297.209 155.224C307.438 129.655 313.523 103.047 314.812 78.2874L316.089 78.5004C315.954 81.1154 315.765 83.7501 315.523 86.4046Z" fill="#F2F2F2"/>
        <path d="M31.4881 144.38H14.8876C14.533 144.381 14.1827 144.302 13.8632 144.148C13.5437 143.995 13.2631 143.771 13.0427 143.495C12.8248 143.225 12.6712 142.91 12.5932 142.572C12.5152 142.235 12.5149 141.884 12.5923 141.547C14.1733 134.596 14.074 127.371 12.3025 120.466C12.1905 120.011 12.2176 119.534 12.3803 119.095C12.5431 118.655 12.834 118.275 13.2157 118.002C21.7517 111.885 28.474 112.063 33.1962 118.53C33.4091 118.825 33.5505 119.165 33.6093 119.523C34.8711 127.081 34.9409 134.788 33.8163 142.367C33.7381 142.926 33.4592 143.438 33.0311 143.808C32.6031 144.179 32.0549 144.382 31.4881 144.38Z" fill="#E6E6E6"/>
        <path d="M26.3414 127.817H20.6308C20.3151 127.817 20.0122 127.692 19.7889 127.47C19.5656 127.247 19.4402 126.946 19.4402 126.631C19.4402 126.316 19.5656 126.015 19.7889 125.792C20.0122 125.57 20.3151 125.445 20.6308 125.445H26.3414C26.6568 125.445 26.959 125.571 27.1817 125.793C27.4045 126.015 27.5296 126.317 27.5296 126.631C27.5296 126.945 27.4045 127.246 27.1817 127.469C26.959 127.691 26.6568 127.817 26.3414 127.817Z" fill="white"/>
        <path d="M26.3414 131.978H20.6308C20.3151 131.978 20.0122 131.853 19.7889 131.63C19.5656 131.408 19.4402 131.106 19.4402 130.791C19.4402 130.477 19.5656 130.175 19.7889 129.952C20.0122 129.73 20.3151 129.605 20.6308 129.605H26.3414C26.6568 129.606 26.959 129.731 27.1817 129.953C27.4045 130.176 27.5296 130.477 27.5296 130.791C27.5296 131.105 27.4045 131.407 27.1817 131.629C26.959 131.852 26.6568 131.977 26.3414 131.978Z" fill="white"/>
        <path d="M26.3414 136.138H20.6308C20.3151 136.138 20.0122 136.013 19.7889 135.791C19.5656 135.568 19.4402 135.266 19.4402 134.952C19.4402 134.637 19.5656 134.335 19.7889 134.113C20.0122 133.89 20.3151 133.765 20.6308 133.765H26.3414C26.6568 133.766 26.959 133.891 27.1817 134.114C27.4045 134.336 27.5296 134.637 27.5296 134.952C27.5296 135.266 27.4045 135.567 27.1817 135.79C26.959 136.012 26.6568 136.137 26.3414 136.138Z" fill="white"/>
        <path d="M333.184 218.227H316.584C316.229 218.228 315.879 218.149 315.559 217.995C315.24 217.842 314.959 217.618 314.739 217.342C314.521 217.072 314.367 216.757 314.289 216.419C314.211 216.082 314.211 215.731 314.289 215.394C315.87 208.443 315.77 201.218 313.999 194.313C313.887 193.858 313.914 193.381 314.077 192.942C314.239 192.502 314.53 192.122 314.912 191.849C323.448 185.732 330.17 185.91 334.892 192.377C335.105 192.672 335.247 193.012 335.306 193.37C336.567 200.928 336.637 208.635 335.513 216.214C335.434 216.773 335.155 217.285 334.727 217.655C334.299 218.026 333.751 218.229 333.184 218.227Z" fill="#E6E6E6"/>
        <path d="M328.038 201.664H322.327C322.012 201.664 321.71 201.538 321.487 201.316C321.264 201.093 321.139 200.792 321.139 200.478C321.139 200.164 321.264 199.862 321.487 199.64C321.71 199.418 322.012 199.292 322.327 199.292H328.038C328.354 199.292 328.657 199.417 328.88 199.639C329.103 199.862 329.229 200.163 329.229 200.478C329.229 200.793 329.103 201.094 328.88 201.317C328.657 201.539 328.354 201.664 328.038 201.664Z" fill="white"/>
        <path d="M328.038 205.825H322.327C322.012 205.824 321.71 205.699 321.487 205.476C321.264 205.254 321.139 204.952 321.139 204.638C321.139 204.324 321.264 204.023 321.487 203.8C321.71 203.578 322.012 203.453 322.327 203.452H328.038C328.354 203.452 328.657 203.577 328.88 203.799C329.103 204.022 329.229 204.324 329.229 204.638C329.229 204.953 329.103 205.255 328.88 205.477C328.657 205.7 328.354 205.825 328.038 205.825Z" fill="white"/>
        <path d="M328.038 209.985H322.327C322.012 209.984 321.71 209.859 321.487 209.637C321.264 209.414 321.139 209.113 321.139 208.799C321.139 208.484 321.264 208.183 321.487 207.961C321.71 207.738 322.012 207.613 322.327 207.612H328.038C328.354 207.612 328.657 207.737 328.88 207.96C329.103 208.182 329.229 208.484 329.229 208.799C329.229 209.113 329.103 209.415 328.88 209.638C328.657 209.86 328.354 209.985 328.038 209.985Z" fill="white"/>
        <path d="M396 319.381C396 319.462 395.984 319.543 395.953 319.618C395.922 319.693 395.876 319.762 395.819 319.819C395.761 319.877 395.692 319.922 395.617 319.953C395.541 319.984 395.46 320 395.379 320H0.621141C0.456404 320 0.298421 319.935 0.181935 319.819C0.0654484 319.703 0 319.545 0 319.381C0 319.217 0.0654484 319.06 0.181935 318.944C0.298421 318.827 0.456404 318.762 0.621141 318.762H395.379C395.46 318.762 395.541 318.778 395.617 318.809C395.692 318.84 395.761 318.885 395.819 318.943C395.876 319 395.922 319.069 395.953 319.144C395.984 319.219 396 319.3 396 319.381Z" fill="#CCCCCC"/>
        <path d="M104.134 281.49L103.099 267.143C96.3166 263.765 88.8094 262.088 81.229 262.257C91.8936 270.47 91.0394 286.885 98.4252 298.119C100.756 301.605 103.844 304.524 107.461 306.66C111.077 308.795 115.13 310.092 119.318 310.455L128.194 315.543C129.209 308.857 128.758 302.031 126.87 295.536C124.983 289.041 121.705 283.031 117.262 277.919C114.741 275.076 111.87 272.561 108.718 270.433C106.778 275.982 104.134 281.49 104.134 281.49Z" fill="#F2F2F2"/>
        <path d="M291.866 283.57L292.901 269.223C299.683 265.845 307.191 264.168 314.771 264.337C304.106 272.55 304.961 288.965 297.575 300.199C295.244 303.685 292.156 306.604 288.54 308.74C284.923 310.875 280.87 312.173 276.682 312.535L267.806 317.623C266.791 310.937 267.242 304.111 269.13 297.616C271.017 291.121 274.295 285.111 278.738 279.999C281.259 277.157 284.13 274.641 287.282 272.513C289.222 278.063 291.866 283.57 291.866 283.57Z" fill="#F2F2F2"/>
        <path d="M193.302 121.662C198.78 121.662 203.22 117.238 203.22 111.781C203.22 106.324 198.78 101.9 193.302 101.9C187.825 101.9 183.385 106.324 183.385 111.781C183.385 117.238 187.825 121.662 193.302 121.662Z" fill="#326789"/>
        <path d="M198.393 107.663C198.244 107.521 198.046 107.442 197.84 107.442C197.633 107.442 197.435 107.521 197.286 107.663C195.182 109.335 193.292 111.258 191.658 113.39C191.257 112.617 190.856 111.844 190.455 111.071C189.993 110.178 188.641 110.967 189.103 111.858C189.69 112.989 190.276 114.119 190.863 115.25C190.933 115.366 191.033 115.461 191.151 115.527C191.27 115.593 191.403 115.628 191.539 115.628C191.675 115.628 191.808 115.593 191.926 115.527C192.045 115.461 192.144 115.366 192.215 115.25C193.955 112.808 196.036 110.624 198.393 108.766C198.539 108.619 198.621 108.421 198.621 108.214C198.621 108.008 198.539 107.809 198.393 107.663Z" fill="white"/>
        <path d="M148.927 139.799L133.972 116.399L151.29 107.159L155.835 125.012L187.861 142.254C189.125 141.801 190.494 141.724 191.802 142.033C193.109 142.341 194.299 143.022 195.224 143.993C196.15 144.963 196.773 146.181 197.016 147.498C197.259 148.814 197.112 150.173 196.593 151.408C196.075 152.643 195.207 153.701 194.095 154.454C192.983 155.206 191.676 155.619 190.333 155.644C188.989 155.668 187.667 155.303 186.529 154.592C185.39 153.881 184.483 152.856 183.92 151.64L148.927 139.799Z" fill="#A0616A"/>
        <path d="M123.046 88.3334C118.347 95.2073 135.046 120.193 135.046 120.193C135.859 118.446 143.636 138.065 144.938 136.906C148.64 133.612 154.435 124.437 157.656 124.028C159.498 123.794 153.384 110.778 153.384 110.778C153.384 110.778 150.589 103.092 146.797 93.274C145.777 90.4785 144.064 87.9856 141.816 86.0274C139.569 84.0692 136.86 82.7094 133.944 82.0745C133.944 82.0745 127.745 81.4596 123.046 88.3334Z" fill="#3F3D56"/>
        <path d="M123.275 312.285L130.378 312.284L133.756 284.99L123.274 284.99L123.275 312.285Z" fill="#A0616A"/>
        <path d="M121.463 309.974L123.463 309.974L131.268 306.812L135.451 309.974H135.451C137.815 309.974 140.083 310.91 141.754 312.575C143.426 314.241 144.365 316.5 144.365 318.855V319.144L121.464 319.144L121.463 309.974Z" fill="#2F2E41"/>
        <path d="M156.272 312.285L163.374 312.284L166.754 284.99L156.271 284.99L156.272 312.285Z" fill="#A0616A"/>
        <path d="M154.46 309.974L156.459 309.974L164.264 306.812L168.448 309.974H168.448C170.812 309.974 173.079 310.91 174.751 312.575C176.423 314.241 177.362 316.5 177.362 318.855V319.144L154.461 319.144L154.46 309.974Z" fill="#2F2E41"/>
        <path d="M159.346 163.062L113.149 164.213C104.375 168.961 104.241 179.238 107.116 191.439C107.116 191.439 106.146 198.691 108.087 200.625C110.028 202.559 110.998 202.559 110.028 205.943C109.057 209.327 114.185 214.855 113.562 215.475C112.939 216.096 111.483 219.48 111.483 219.48L116.336 247.038C116.336 247.038 119.733 294.901 120.703 295.868C121.674 296.835 122.644 295.868 121.674 298.285C120.703 300.702 119.733 299.735 120.703 300.702C121.563 301.626 122.373 302.594 123.129 303.603H134.861C134.861 303.603 135.746 298.768 135.746 298.285C135.746 297.802 136.716 294.901 136.716 294.417C136.716 293.934 135.859 293.079 135.859 293.079C135.562 292.096 135.362 291.087 135.261 290.066C135.261 289.099 132.349 251.872 132.349 251.872L138.172 203.526L152.244 250.905C152.244 250.905 152.244 292.483 153.215 293.45C154.185 294.417 154.185 293.934 153.7 295.868C153.215 297.802 151.274 297.318 152.729 298.769C154.185 300.219 154.67 297.802 154.185 300.219L153.7 302.636L168.257 302.844C168.257 302.844 170.198 298.769 169.228 297.318C168.257 295.868 168.316 296.264 169.5 293.89C170.684 291.517 171.169 291.033 170.684 290.55C170.199 290.066 170.198 287.495 170.198 287.495L167.772 241.236C167.772 241.236 167.287 192.406 167.287 190.955C167.25 190.209 167.388 189.465 167.69 188.78V186.812L165.831 179.836L159.346 163.062Z" fill="#2F2E41"/>
        <path d="M131.595 67.3541C139.522 67.3541 145.949 60.9513 145.949 53.0529C145.949 45.1546 139.522 38.7517 131.595 38.7517C123.667 38.7517 117.241 45.1546 117.241 53.0529C117.241 60.9513 123.667 67.3541 131.595 67.3541Z" fill="#A0616A"/>
        <path d="M138.772 76.8062C141.864 78.6379 143.714 82.0033 144.776 85.428C146.742 91.7683 147.925 98.3236 148.3 104.949L149.421 124.784L163.312 167.02C151.273 177.169 106.022 169.326 106.022 169.326C106.022 169.326 104.632 168.865 106.022 167.481C107.411 166.097 108.763 167.323 107.374 165.939C105.985 164.555 106.942 166.097 107.405 164.713C107.868 163.329 107.405 164.252 106.942 163.79C106.479 163.329 110.527 159.177 110.527 159.177L106.823 134.934L102.192 86.0328C107.749 79.1128 118.923 75.0336 118.923 75.0336L121.811 69.8554L136.247 71.0061L138.772 76.8062Z" fill="#3F3D56"/>
        <path d="M143.427 45.4549C144.543 46.284 145.369 47.4407 145.79 48.7624C145.952 46.6025 145.962 44.4341 145.821 42.2728C145.652 40.7541 144.579 40.4125 143.336 40.0166C142.214 39.659 140.945 39.255 140.603 37.7807C136.091 33.4074 128.237 33.6279 122.861 35.1534C119.903 35.9928 118.201 37.0713 118.049 37.7031L118.018 37.8332L117.897 37.8931C115.617 39.0289 115.174 42.6155 115.203 45.4243C115.259 50.7163 117.092 56.7265 118.126 57.2148C118.18 57.2407 118.194 57.2305 118.218 57.2109C119.773 55.9722 121.671 57.305 122.505 58.0295C122.997 54.7405 124.581 51.7106 127.004 49.4237C129.427 47.1368 132.55 45.7249 135.873 45.4134C136.958 45.3089 138.034 45.129 139.094 44.8751C139.632 44.7365 140.185 44.6643 140.74 44.6599C141.696 44.6455 142.634 44.9229 143.427 45.4549Z" fill="#2F2E41"/>
        <path d="M232.535 174.458L260.146 146.522L267.421 124.179L255.714 119.461C249.915 125.289 243.945 143.131 243.945 143.131L225.099 168.332C224.949 168.387 224.799 168.446 224.651 168.516C223.783 168.924 223.036 169.548 222.481 170.329C221.927 171.109 221.583 172.018 221.484 172.969C221.385 173.92 221.534 174.88 221.917 175.757C222.299 176.634 222.902 177.397 223.667 177.974C224.433 178.551 225.334 178.921 226.285 179.049C227.236 179.177 228.204 179.059 229.095 178.705C229.987 178.352 230.772 177.775 231.374 177.031C231.977 176.287 232.376 175.401 232.535 174.458Z" fill="#FFB8B8"/>
        <path d="M252.521 122.017L267.325 126.284L267.381 126.273C272.822 125.221 277.127 116.21 279.78 108.837C280.652 106.405 280.566 103.733 279.537 101.363C278.509 98.9919 276.615 97.0986 274.239 96.0657C272.481 95.3154 270.548 95.0701 268.658 95.3573C266.767 95.6445 264.995 96.4528 263.541 97.6909L256.16 104.024L252.521 122.017Z" fill="#326789"/>
        <path d="M239.854 311.455L231.892 311.454L228.105 280.857L239.855 280.858L239.854 311.455Z" fill="#FFB8B8"/>
        <path d="M241.885 308.865L239.644 308.865L230.895 305.32L226.205 308.864H226.205C223.555 308.864 221.013 309.913 219.139 311.78C217.265 313.647 216.213 316.179 216.212 318.82V319.143L241.885 319.144L241.885 308.865Z" fill="#2F2E41"/>
        <path d="M275.183 311.455L267.22 311.454L263.433 280.857L275.184 280.858L275.183 311.455Z" fill="#FFB8B8"/>
        <path d="M277.214 308.865L274.973 308.865L266.223 305.32L261.534 308.864H261.533C258.883 308.864 256.342 309.913 254.468 311.78C252.594 313.647 251.541 316.179 251.541 318.82V319.143L277.213 319.144L277.214 308.865Z" fill="#2F2E41"/>
        <path d="M287.323 179.661C287.323 179.661 288.253 190.777 285.929 201.429C283.604 212.081 283.604 242.081 283.604 242.081L278.491 300.541L263.151 299.151L258.967 201.429L244.092 234.312L245.487 238.943L243.629 240.101C243.629 240.101 245.022 249.132 244.092 249.132C243.163 249.132 240.838 250.521 240.838 250.521L242.698 298.225L226.893 297.762L221.315 230.607L227.358 192.166L227.823 184.756L229.915 184.841L230.98 181.745L232.936 176.419L287.323 179.661Z" fill="#2F2E41"/>
        <path d="M288.127 181.996L288.209 181.88C292.634 175.708 285.979 160.877 284.976 158.727L289.203 157.361L288.251 149.298L287.8 145.704L291.031 142.485L291.04 142.405L292.9 126.195L295.603 115.428C296.622 111.358 296.535 107.091 295.352 103.066C294.168 99.0402 291.931 95.4009 288.869 92.5214L282.62 86.6509L275.026 75.4549H262.779L258.579 83.3577C254.508 84.2952 250.896 86.626 248.372 89.9441C245.848 93.2622 244.573 97.3572 244.768 101.516L245.72 122.243L241.994 148.049L241.991 152.719L237.799 157.362L238.714 161.923L235.523 163.286L234.114 169.836C233.531 170.603 229.682 175.716 229.682 177.114C229.682 177.324 229.838 177.527 230.171 177.752C232.794 179.521 247.292 183.129 253.708 180.571C260.543 177.848 287.712 181.933 287.985 181.974L288.127 181.996Z" fill="#326789"/>
        <path d="M267.32 71.8407C276.278 71.8407 283.54 64.6055 283.54 55.6804C283.54 46.7554 276.278 39.5202 267.32 39.5202C258.362 39.5202 251.1 46.7554 251.1 55.6804C251.1 64.6055 258.362 71.8407 267.32 71.8407Z" fill="#FFB8B8"/>
        <path d="M265.766 72.1023C268.278 72.0767 270.783 71.8374 273.254 71.387C275.701 70.8255 281.098 66.6672 282.569 64.2106C283.662 62.3854 284.318 59.5623 284.676 57.5155C285.159 54.8067 285.066 52.0269 284.403 49.3562C283.739 46.6856 282.52 44.1835 280.824 42.0121C280.171 41.1024 279.282 40.3857 278.253 39.9377C278.162 39.9049 278.069 39.8762 277.974 39.852C276.483 39.5017 275.13 38.7153 274.091 37.5937C273.889 37.3666 273.671 37.1543 273.438 36.9585C272.272 36.0281 270.901 35.3859 269.438 35.0844C267.074 34.5188 263.693 35.2276 259.389 37.1928C257.226 38.1801 254.826 37.9046 252.976 37.5544C252.872 37.5371 252.766 37.5473 252.667 37.5838C252.568 37.6203 252.481 37.6819 252.414 37.7624C251.65 38.5147 250.629 38.9511 249.555 38.9838C248.899 39.0295 248.232 39.9544 247.429 41.1588C247.247 41.4322 247.034 41.7513 246.88 41.946L246.849 41.5804L246.487 41.9985C245.919 42.6556 245.527 43.4453 245.348 44.294C245.169 45.1427 245.208 46.0228 245.462 46.8524C245.716 47.6819 246.177 48.4339 246.801 49.0383C247.425 49.6427 248.193 50.0799 249.032 50.3092C249.698 50.4675 250.379 50.5577 251.063 50.5783C251.478 50.6048 251.908 50.6321 252.32 50.6925C253.644 50.9274 254.884 51.5002 255.919 52.3552C256.955 53.2102 257.75 54.318 258.227 55.5706C258.34 55.8601 258.518 56.1199 258.748 56.33C258.977 56.54 259.252 56.6947 259.551 56.7822C259.85 56.8696 260.165 56.8874 260.472 56.8341C260.779 56.7809 261.07 56.6581 261.322 56.4752C261.741 56.1326 262.237 55.8959 262.767 55.7855C263.298 55.6751 263.847 55.6942 264.369 55.8411C264.822 56.0773 265.18 56.4617 265.383 56.9298C265.628 57.4507 266.024 57.8871 266.519 58.1833C268.208 58.9965 268.421 62.7859 267.904 65.9628C267.406 69.025 266.323 71.2588 265.27 71.3949C264.459 71.4996 264.368 71.5596 264.312 71.7043L264.263 71.8339L264.358 71.9515C264.811 72.1021 265.291 72.1535 265.766 72.1023Z" fill="#2F2E41"/>
        <path d="M252.309 123.745L244.513 113.848C236.571 116.027 222.48 128.54 222.48 128.54L193.542 141.053C192.576 140.891 191.584 140.986 190.667 141.327C189.749 141.668 188.938 142.245 188.315 142.998C187.692 143.751 187.28 144.654 187.118 145.617C186.957 146.579 187.054 147.567 187.397 148.481C187.741 149.394 188.321 150.202 189.077 150.821C189.834 151.441 190.741 151.851 191.707 152.011C192.673 152.17 193.665 152.073 194.581 151.729C195.498 151.386 196.308 150.807 196.929 150.053L234.837 139.516L252.309 123.745Z" fill="#FFB8B8"/>
        <path d="M250.441 126.008L262.743 112.345L263.426 102.664C263.553 100.763 263.144 98.864 262.245 97.1824C261.345 95.5008 259.992 94.1033 258.338 93.1477C256.086 91.8674 253.431 91.4867 250.909 92.0824C248.386 92.6782 246.185 94.206 244.75 96.357C240.403 102.884 235.727 111.709 238.133 116.684L238.157 116.735L250.441 126.008Z" fill="#326789"/>
        <path d="M137.058 177.363L105.085 161.048C102.811 159.888 102.057 156.81 103.406 154.187L124.253 113.631C125.601 111.008 128.548 109.819 130.822 110.979L162.795 127.294C165.069 128.454 165.822 131.532 164.474 134.155L143.627 174.71C142.279 177.333 139.332 178.523 137.058 177.363Z" fill="#E6E6E6"/>
        <path d="M131.595 169.863L109.872 158.778C107.742 157.692 107.036 154.809 108.299 152.352L125.618 118.66C126.881 116.203 129.641 115.089 131.771 116.176L158.008 129.563C160.138 130.65 160.843 133.533 159.581 135.989L150.172 154.293C144.547 165.235 141.082 174.704 131.595 169.863Z" fill="white"/>
        <path d="M142.335 151.463L123.094 141.645C122.859 141.478 122.692 141.233 122.624 140.953C122.555 140.673 122.59 140.379 122.722 140.122C122.853 139.866 123.073 139.666 123.341 139.558C123.609 139.45 123.906 139.441 124.18 139.534L143.42 149.352C143.656 149.519 143.823 149.764 143.891 150.044C143.96 150.324 143.925 150.618 143.793 150.875C143.661 151.131 143.442 151.331 143.174 151.439C142.906 151.547 142.608 151.556 142.335 151.463Z" fill="#326789"/>
        <path d="M125.341 148.058L120.95 145.818C120.715 145.65 120.548 145.405 120.479 145.125C120.411 144.845 120.445 144.551 120.577 144.294C120.709 144.038 120.929 143.838 121.196 143.73C121.464 143.622 121.762 143.613 122.035 143.706L126.426 145.946C126.661 146.113 126.829 146.359 126.897 146.639C126.965 146.918 126.931 147.213 126.799 147.469C126.667 147.725 126.448 147.926 126.18 148.034C125.912 148.142 125.614 148.151 125.341 148.058Z" fill="#326789"/>
        <path d="M130.973 156.198L118.805 149.99C118.57 149.823 118.403 149.577 118.335 149.297C118.266 149.018 118.301 148.723 118.433 148.467C118.564 148.21 118.784 148.01 119.052 147.902C119.32 147.794 119.617 147.785 119.891 147.878L132.058 154.087C132.294 154.254 132.461 154.499 132.529 154.779C132.598 155.059 132.563 155.353 132.431 155.61C132.3 155.866 132.08 156.066 131.812 156.174C131.544 156.282 131.246 156.291 130.973 156.198V156.198Z" fill="#326789"/>
        <path d="M149.949 136.651L130.708 126.833C130.473 126.666 130.306 126.421 130.237 126.141C130.169 125.861 130.204 125.567 130.335 125.31C130.467 125.054 130.687 124.854 130.955 124.746C131.222 124.638 131.52 124.629 131.794 124.722L151.034 134.54C151.269 134.707 151.436 134.952 151.505 135.232C151.573 135.512 151.538 135.806 151.407 136.063C151.275 136.319 151.055 136.519 150.788 136.627C150.52 136.735 150.222 136.744 149.949 136.651Z" fill="#326789"/>
        <path d="M132.955 133.246L128.564 131.005C128.328 130.838 128.161 130.593 128.093 130.313C128.024 130.033 128.059 129.739 128.191 129.482C128.323 129.226 128.542 129.026 128.81 128.918C129.078 128.81 129.376 128.801 129.649 128.894L134.04 131.134C134.275 131.301 134.442 131.547 134.511 131.827C134.579 132.106 134.544 132.401 134.413 132.657C134.281 132.913 134.061 133.114 133.794 133.222C133.526 133.33 133.228 133.339 132.955 133.246Z" fill="#326789"/>
        <path d="M138.587 141.386L126.419 135.178C126.184 135.01 126.017 134.765 125.948 134.485C125.88 134.205 125.915 133.911 126.046 133.654C126.178 133.398 126.398 133.198 126.666 133.09C126.933 132.982 127.231 132.973 127.505 133.066L139.672 139.275C139.907 139.442 140.075 139.687 140.143 139.967C140.211 140.247 140.177 140.541 140.045 140.798C139.913 141.054 139.694 141.254 139.426 141.362C139.158 141.47 138.86 141.479 138.587 141.386L138.587 141.386Z" fill="#326789"/>
        <path d="M110.563 142.055L103.34 115.264L122.642 111.623L121.604 130.013L146.965 156.031C148.308 155.976 149.637 156.312 150.792 156.997C151.946 157.682 152.876 158.687 153.467 159.89C154.058 161.092 154.285 162.44 154.121 163.768C153.956 165.097 153.407 166.35 152.541 167.373C151.674 168.396 150.528 169.146 149.241 169.531C147.954 169.917 146.582 169.921 145.293 169.543C144.004 169.165 142.853 168.421 141.981 167.403C141.109 166.384 140.553 165.135 140.381 163.807L110.563 142.055Z" fill="#A0616A"/>
        <path d="M101.365 85.225C94.8131 90.3784 103.222 119.204 103.222 119.204C104.524 117.78 106.037 138.82 107.629 138.103C112.152 136.067 120.441 129.046 123.637 129.618C125.465 129.946 123.55 115.702 123.55 115.702C123.55 115.702 123.198 107.535 122.536 97.0353C122.404 94.0636 121.52 91.1734 119.965 88.6338C118.411 86.0942 116.236 83.9877 113.645 82.5105C113.645 82.5105 107.917 80.0717 101.365 85.225Z" fill="#3F3D56"/>
        <path d="M210.381 201.521L192.933 193.313C192.56 193.138 192.231 192.882 191.972 192.562C191.713 192.243 191.529 191.87 191.435 191.47C191.341 191.079 191.336 190.671 191.422 190.278C191.508 189.885 191.683 189.516 191.932 189.2C196.986 182.764 200.456 175.239 202.065 167.226C202.187 166.612 202.518 166.06 203.003 165.662C203.487 165.265 204.095 165.047 204.723 165.047C213.621 165.077 220.272 168.314 224.489 174.667C224.711 174.998 224.859 175.372 224.921 175.765C224.983 176.158 224.958 176.56 224.848 176.943C222.406 185.328 218.691 193.291 213.83 200.556C213.47 201.106 212.921 201.506 212.287 201.683C211.653 201.861 210.976 201.803 210.381 201.521Z" fill="#E6E6E6"/>
        <path d="M215.513 190.008L202.173 183.732C201.841 183.576 201.585 183.295 201.461 182.95C201.337 182.606 201.355 182.227 201.512 181.896C201.669 181.566 201.951 181.311 202.296 181.187C202.642 181.064 203.023 181.082 203.354 181.238L216.695 187.515C216.859 187.592 217.007 187.701 217.129 187.835C217.251 187.969 217.345 188.126 217.407 188.296C217.468 188.467 217.495 188.647 217.486 188.828C217.477 189.009 217.433 189.187 217.355 189.35C217.278 189.514 217.169 189.661 217.034 189.783C216.899 189.904 216.742 189.998 216.571 190.059C216.4 190.121 216.218 190.148 216.037 190.139C215.855 190.13 215.677 190.086 215.513 190.008H215.513Z" fill="white"/>
        <path d="M217.585 185.636L204.245 179.359C203.913 179.203 203.657 178.922 203.533 178.578C203.409 178.234 203.428 177.854 203.584 177.524C203.741 177.193 204.023 176.938 204.369 176.815C204.714 176.691 205.095 176.71 205.427 176.866L218.767 183.142C219.099 183.298 219.355 183.579 219.479 183.924C219.603 184.268 219.584 184.647 219.428 184.978C219.271 185.308 218.989 185.563 218.643 185.687C218.298 185.81 217.917 185.792 217.585 185.636V185.636Z" fill="white"/>
        <path d="M199.76 48.3724L198.518 48.5079C192.981 26.83 182.249 11.8118 167.481 5.07656C148.707 -3.48511 125.492 2.26421 102.113 21.2657C78.6149 40.3642 57.8129 70.5315 43.5394 106.212L42.3345 105.663C56.6706 69.8263 77.5794 39.5132 101.209 20.3085C124.957 1.0068 148.646 -4.78469 167.911 4.00116C183.103 10.9294 194.116 26.2728 199.76 48.3724Z" fill="#F2F2F2"/>
        <path d="M62.7571 76.6051C59.5096 83.4212 56.4207 90.4827 53.5762 97.5933C37.207 138.512 28.9119 180.301 29.5897 218.444L28.3104 218.308C27.6318 180.023 35.9509 138.09 52.3713 97.0439C55.224 89.9133 58.3217 82.8318 61.5785 75.9965L62.7571 76.6051Z" fill="#F2F2F2"/>
        <path d="M62.1431 104.721C58.8956 111.537 55.8067 118.599 52.9622 125.709C36.593 166.628 28.2979 208.416 28.9757 246.56L27.6964 246.424C27.0178 208.139 35.3369 166.206 51.7572 125.16C54.61 118.029 57.7076 110.948 60.9645 104.112L62.1431 104.721Z" fill="#F2F2F2"/>
        <path d="M27.7578 114.946C29.172 112.828 28.335 109.797 25.8881 108.175C23.4413 106.553 20.3114 106.955 18.8971 109.073C17.4829 111.191 18.32 114.222 20.7668 115.844C23.2136 117.466 26.3436 117.064 27.7578 114.946Z" fill="#CCCCCC"/>
        <path d="M328.902 191.429C330.316 189.311 329.479 186.28 327.032 184.658C324.585 183.036 321.455 183.438 320.041 185.556C318.627 187.674 319.464 190.706 321.911 192.327C324.358 193.949 327.488 193.547 328.902 191.429Z" fill="#CCCCCC"/>
    </g>
    <defs>
        <clipPath id="clip0_183_1833">
            <rect width="396" height="320" fill="white"/>
        </clipPath>
    </defs>
</svg>
