<svg width="36" height="36" viewBox="0 0 36 36" fill="none" xmlns="http://www.w3.org/2000/svg">
    <path d="M18 3C26.2842 3 33 9.71572 33 18C33 26.2842 26.2842 33 18 33C9.71572 33 3 26.2842 3 18C3 9.71572 9.71572 3 18 3ZM18 5.25C10.9584 5.25 5.25 10.9584 5.25 18C5.25 25.0416 10.9584 30.75 18 30.75C25.0416 30.75 30.75 25.0416 30.75 18C30.75 10.9584 25.0416 5.25 18 5.25ZM18 10.5C18.6213 10.5 19.125 11.0037 19.125 11.625V16.875H24.375C24.9963 16.875 25.5 17.3787 25.5 18C25.5 18.6213 24.9963 19.125 24.375 19.125H19.125V24.375C19.125 24.9963 18.6213 25.5 18 25.5C17.3787 25.5 16.875 24.9963 16.875 24.375V19.125H11.625C11.0037 19.125 10.5 18.6213 10.5 18C10.5 17.3787 11.0037 16.875 11.625 16.875H16.875V11.625C16.875 11.0037 17.3787 10.5 18 10.5Z" fill="#326789"/>
</svg>
