<svg width="300" height="325" viewBox="0 0 300 325" fill="none" xmlns="http://www.w3.org/2000/svg">
    <g clip-path="url(#clip0_183_1764)">
        <path d="M278.9 324.676V292.083C278.9 292.083 291.667 315.19 278.9 324.676Z" fill="#F1F1F1"/>
        <path d="M279.688 324.67L255.554 302.629C255.554 302.629 281.298 308.898 279.688 324.67Z" fill="#F1F1F1"/>
        <path d="M213.492 143.81L85.4223 218.276C84.974 218.536 84.4404 218.608 83.9386 218.477C83.4367 218.346 83.0075 218.023 82.7452 217.577L0.387694 77.3946C0.126396 76.9486 0.0535684 76.4178 0.185187 75.9185C0.316806 75.4192 0.642129 74.9923 1.08978 74.7313L129.16 0.265647C129.608 0.00570109 130.142 -0.0667491 130.644 0.0641904C131.146 0.19513 131.575 0.518767 131.837 0.964101L214.195 141.147C214.456 141.593 214.529 142.124 214.397 142.623C214.265 143.122 213.94 143.549 213.492 143.81Z" fill="white"/>
        <path d="M213.492 143.81L85.4223 218.276C84.974 218.536 84.4404 218.608 83.9386 218.477C83.4367 218.346 83.0075 218.023 82.7452 217.577L0.387694 77.3946C0.126396 76.9486 0.0535684 76.4178 0.185187 75.9185C0.316806 75.4192 0.642129 74.9923 1.08978 74.7313L129.16 0.265647C129.608 0.00570109 130.142 -0.0667491 130.644 0.0641904C131.146 0.19513 131.575 0.518767 131.837 0.964101L214.195 141.147C214.456 141.593 214.529 142.124 214.397 142.623C214.265 143.122 213.94 143.549 213.492 143.81ZM1.48478 75.4036C1.21618 75.5602 1.02098 75.8164 0.942008 76.116C0.863036 76.4155 0.906742 76.734 1.06354 77.0016L83.421 217.184C83.5784 217.452 83.8359 217.646 84.137 217.724C84.4382 217.803 84.7583 217.76 85.0273 217.604L213.097 143.138C213.366 142.981 213.561 142.725 213.64 142.426C213.719 142.126 213.676 141.807 213.519 141.54L131.161 1.35704C131.004 1.08983 130.746 0.895631 130.445 0.817066C130.144 0.738501 129.824 0.781979 129.555 0.937963L1.48478 75.4036Z" fill="#3F3D56"/>
        <path d="M83.8087 89.3639L52.0445 107.833C51.5963 108.093 51.0627 108.165 50.5608 108.034C50.059 107.903 49.6298 107.58 49.3675 107.134L30.8025 75.5345C30.5412 75.0886 30.4684 74.5577 30.6 74.0584C30.7316 73.5592 31.0569 73.1322 31.5046 72.8712L63.2687 54.4022C63.7169 54.1422 64.2505 54.0698 64.7524 54.2007C65.2543 54.3317 65.6834 54.6553 65.9458 55.1006L84.5107 86.7006C84.772 87.1465 84.8449 87.6774 84.7132 88.1767C84.5816 88.6759 84.2563 89.1029 83.8087 89.3639ZM31.8996 73.5436C31.631 73.7002 31.4358 73.9563 31.3568 74.2559C31.2778 74.5555 31.3215 74.874 31.4783 75.1415L50.0433 106.742C50.2007 107.009 50.4582 107.203 50.7593 107.281C51.0605 107.36 51.3806 107.317 51.6496 107.161L83.4137 88.6915C83.6823 88.5349 83.8775 88.2788 83.9565 87.9792C84.0354 87.6796 83.9917 87.3611 83.8349 87.0936L65.2699 55.4936C65.1126 55.2264 64.8551 55.0322 64.5539 54.9536C64.2528 54.8751 63.9326 54.9185 63.6637 55.0745L31.8996 73.5436Z" fill="#F2F2F2"/>
        <path d="M76.9565 98.5347L45.1923 117.004C44.7889 117.238 44.3087 117.303 43.857 117.185C43.4053 117.067 43.0191 116.776 42.783 116.375L24.218 84.7752C23.9828 84.3739 23.9173 83.8961 24.0357 83.4468C24.1542 82.9974 24.447 82.6132 24.8498 82.3783L56.614 63.9092C57.0174 63.6753 57.4976 63.6101 57.9493 63.7279C58.401 63.8458 58.7872 64.137 59.0233 64.5378L77.5883 96.1378C77.8235 96.5392 77.889 97.0169 77.7706 97.4663C77.6521 97.9156 77.3593 98.2999 76.9565 98.5347Z" fill="#326789"/>
        <path d="M153.625 74.7027L54.2772 132.468C53.874 132.702 53.3935 132.768 52.9417 132.65C52.4898 132.532 52.1036 132.24 51.8679 131.839C51.6322 131.438 51.5663 130.96 51.6848 130.51C51.8033 130.061 52.0965 129.677 52.4997 129.442L151.847 71.6772C152.047 71.5611 152.267 71.4852 152.497 71.454C152.726 71.4227 152.959 71.4367 153.183 71.4951C153.406 71.5534 153.616 71.6551 153.801 71.7942C153.985 71.9333 154.14 72.1071 154.256 72.3058C154.373 72.5044 154.449 72.724 154.481 72.952C154.512 73.18 154.498 73.4119 154.44 73.6344C154.381 73.857 154.279 74.0659 154.139 74.2492C153.999 74.4325 153.824 74.5866 153.625 74.7027Z" fill="#CCCCCC"/>
        <path d="M135.755 99.074L60.3996 142.889C60.1999 143.005 59.9792 143.081 59.75 143.112C59.5208 143.143 59.2877 143.129 59.064 143.071C58.6122 142.953 58.2259 142.662 57.9902 142.26C57.7545 141.859 57.6886 141.381 57.8071 140.932C57.9256 140.482 58.2188 140.098 58.6221 139.863L133.977 96.0485C134.177 95.9324 134.398 95.8566 134.627 95.8253C134.856 95.7941 135.089 95.808 135.313 95.8664C135.537 95.9248 135.747 96.0264 135.931 96.1655C136.115 96.3046 136.27 96.4785 136.387 96.6771C136.503 96.8758 136.58 97.0954 136.611 97.3233C136.643 97.5513 136.628 97.7832 136.57 98.0058C136.511 98.2283 136.409 98.4372 136.269 98.6205C136.129 98.8038 135.955 98.9579 135.755 99.074V99.074Z" fill="#CCCCCC"/>
        <path d="M130.772 36.5758L86.8424 62.1181C86.4391 62.3526 85.9587 62.4181 85.5069 62.3003C85.055 62.1824 84.6688 61.8907 84.4331 61.4895C84.1974 61.0883 84.1315 60.6104 84.25 60.1609C84.3685 59.7114 84.6616 59.3271 85.0649 59.0926L128.994 33.5503C129.397 33.3158 129.878 33.2503 130.33 33.3682C130.553 33.4265 130.763 33.5282 130.948 33.6673C131.132 33.8064 131.287 33.9802 131.403 34.1789C131.52 34.3776 131.596 34.5971 131.628 34.8251C131.659 35.0531 131.645 35.285 131.586 35.5075C131.528 35.7301 131.426 35.939 131.286 36.1223C131.146 36.3056 130.971 36.4597 130.772 36.5758Z" fill="#CCCCCC"/>
        <path d="M125.931 53.3716L92.965 72.5394C92.7653 72.6555 92.5446 72.7314 92.3154 72.7626C92.0863 72.7939 91.8532 72.7799 91.6294 72.7215C91.4057 72.6632 91.1957 72.5615 91.0115 72.4224C90.8272 72.2833 90.6723 72.1095 90.5556 71.9108C90.4389 71.7122 90.3627 71.4926 90.3313 71.2646C90.2998 71.0366 90.3139 70.8047 90.3726 70.5822C90.4312 70.3596 90.5334 70.1507 90.6732 69.9674C90.8131 69.7841 90.9878 69.63 91.1875 69.5139L124.153 50.3461C124.557 50.1116 125.037 50.0461 125.489 50.1639C125.941 50.2818 126.327 50.5735 126.563 50.9747C126.798 51.3759 126.864 51.8538 126.746 52.3033C126.627 52.7528 126.334 53.1371 125.931 53.3716Z" fill="#CCCCCC"/>
        <path d="M165.869 95.5452L66.5221 153.31C66.1188 153.545 65.6384 153.61 65.1866 153.492C64.7347 153.374 64.3485 153.083 64.1127 152.682C63.877 152.28 63.8112 151.802 63.9297 151.353C64.0482 150.903 64.3413 150.519 64.7446 150.285L164.092 92.5197C164.495 92.2852 164.976 92.2197 165.427 92.3376C165.879 92.4555 166.266 92.7471 166.501 93.1483C166.737 93.5495 166.803 94.0275 166.684 94.477C166.566 94.9265 166.273 95.3107 165.869 95.5452V95.5452Z" fill="#CCCCCC"/>
        <path d="M148 119.917L72.6447 163.732C72.445 163.848 72.2243 163.923 71.9951 163.955C71.766 163.986 71.5329 163.972 71.3091 163.914C71.0854 163.855 70.8754 163.754 70.6912 163.615C70.5069 163.475 70.352 163.302 70.2353 163.103C70.1186 162.904 70.0424 162.685 70.0109 162.457C69.9795 162.229 69.9936 161.997 70.0522 161.774C70.1109 161.552 70.2131 161.343 70.3529 161.16C70.4927 160.976 70.6675 160.822 70.8672 160.706L146.222 116.891C146.422 116.775 146.643 116.699 146.872 116.668C147.101 116.637 147.334 116.651 147.558 116.709C147.782 116.767 147.992 116.869 148.176 117.008C148.36 117.147 148.515 117.321 148.632 117.52C148.749 117.718 148.825 117.938 148.856 118.166C148.888 118.394 148.874 118.626 148.815 118.848C148.756 119.071 148.654 119.28 148.514 119.463C148.374 119.646 148.2 119.801 148 119.917V119.917Z" fill="#CCCCCC"/>
        <path d="M178.115 116.388L78.7672 174.153C78.5676 174.269 78.3468 174.345 78.1177 174.376C77.8885 174.407 77.6554 174.393 77.4317 174.335C77.208 174.276 76.998 174.175 76.8137 174.036C76.6295 173.897 76.4746 173.723 76.3579 173.524C76.2411 173.325 76.1649 173.106 76.1335 172.878C76.1021 172.65 76.1161 172.418 76.1748 172.195C76.2335 171.973 76.3357 171.764 76.4755 171.581C76.6153 171.397 76.7901 171.243 76.9897 171.127L176.337 113.362C176.537 113.246 176.757 113.17 176.987 113.139C177.216 113.108 177.449 113.122 177.673 113.18C177.896 113.238 178.106 113.34 178.291 113.479C178.475 113.618 178.63 113.792 178.746 113.991C178.863 114.189 178.939 114.409 178.971 114.637C179.002 114.865 178.988 115.097 178.929 115.319C178.871 115.542 178.769 115.751 178.629 115.934C178.489 116.118 178.314 116.272 178.115 116.388Z" fill="#CCCCCC"/>
        <path d="M184.237 126.809L84.8898 184.574C84.6901 184.69 84.4694 184.766 84.2402 184.797C84.0111 184.828 83.778 184.815 83.5542 184.756C83.3305 184.698 83.1205 184.596 82.9363 184.457C82.752 184.318 82.5971 184.144 82.4804 183.945C82.3637 183.747 82.2875 183.527 82.2561 183.299C82.2247 183.071 82.2387 182.839 82.2974 182.617C82.356 182.394 82.4582 182.185 82.598 182.002C82.7378 181.819 82.9126 181.665 83.1123 181.548L182.46 123.784C182.659 123.667 182.88 123.592 183.109 123.56C183.338 123.529 183.571 123.543 183.795 123.601C184.019 123.66 184.229 123.761 184.413 123.901C184.597 124.04 184.752 124.214 184.869 124.412C184.986 124.611 185.062 124.83 185.093 125.058C185.125 125.286 185.111 125.518 185.052 125.741C184.993 125.963 184.891 126.172 184.751 126.356C184.612 126.539 184.437 126.693 184.237 126.809Z" fill="#CCCCCC"/>
        <path d="M152.11 167.378C153.49 165.761 154.733 164.032 155.824 162.21C156.803 160.566 157.764 158.808 157.98 156.88C158.09 156.059 158.004 155.224 157.729 154.442C157.453 153.66 156.996 152.954 156.395 152.381C155.814 151.848 155.077 151.513 154.292 151.424C153.506 151.335 152.713 151.498 152.026 151.887C151.332 152.284 150.758 152.86 150.365 153.555C149.973 154.25 149.776 155.037 149.797 155.834C149.853 156.711 150.108 157.564 150.542 158.33C150.976 159.096 151.579 159.754 152.304 160.255C155.24 162.372 159.826 162.261 162.956 160.651C166.482 158.837 168.303 154.09 165.533 150.841C164.957 150.165 163.999 150.92 164.143 151.649C164.326 152.634 164.88 153.512 165.692 154.104C166.504 154.696 167.512 154.957 168.511 154.835C169.51 154.712 170.424 154.214 171.067 153.443C171.709 152.673 172.032 151.687 171.968 150.687L170.723 151.411C172.25 152.084 173.927 152.345 175.587 152.168C177.247 151.99 178.831 151.382 180.179 150.402C180.846 149.92 181.442 149.347 181.949 148.701C182.558 147.91 183.582 147.399 184.411 146.829L190.385 142.723C191.264 142.119 190.428 140.679 189.542 141.288L184.132 145.007C183.23 145.627 182.323 146.239 181.427 146.867C180.786 147.315 180.392 148.04 179.809 148.572C178.706 149.56 177.343 150.215 175.879 150.461C174.416 150.707 172.912 150.535 171.543 149.963C171.416 149.895 171.273 149.861 171.128 149.863C170.983 149.866 170.842 149.905 170.717 149.978C170.592 150.051 170.488 150.154 170.414 150.278C170.341 150.402 170.301 150.543 170.298 150.687C170.364 151.284 170.19 151.882 169.815 152.351C169.44 152.821 168.893 153.124 168.295 153.195C167.696 153.265 167.093 153.098 166.618 152.728C166.143 152.359 165.833 151.818 165.757 151.222L164.367 152.031C166.154 154.127 164.964 157.342 162.906 158.748C160.604 160.321 157.202 160.594 154.608 159.616C153.971 159.398 153.387 159.052 152.891 158.599C152.395 158.147 151.998 157.597 151.725 156.985C151.472 156.432 151.4 155.814 151.519 155.218C151.637 154.622 151.941 154.078 152.387 153.663C152.773 153.283 153.293 153.068 153.836 153.062C154.379 153.056 154.903 153.261 155.298 153.632C155.727 154.068 156.043 154.603 156.216 155.189C156.389 155.775 156.414 156.395 156.29 156.993C156.022 158.657 155.097 160.192 154.237 161.614C153.254 163.234 152.143 164.774 150.914 166.217C150.225 167.029 151.414 168.197 152.11 167.378L152.11 167.378Z" fill="#326789"/>
        <path d="M166.938 206.882C167.082 207.03 167.214 207.188 167.333 207.356L185.832 206.906L187.991 202.982L194.368 205.449L191.226 212.764C190.972 213.355 190.532 213.848 189.973 214.169C189.413 214.49 188.764 214.622 188.123 214.545L167.222 212.033C166.729 212.654 166.057 213.111 165.297 213.343C164.536 213.575 163.723 213.571 162.965 213.332C162.206 213.093 161.539 212.63 161.052 212.005C160.565 211.379 160.28 210.621 160.237 209.831C160.193 209.041 160.393 208.256 160.808 207.582C161.224 206.907 161.836 206.374 162.563 206.054C163.291 205.734 164.099 205.642 164.88 205.79C165.662 205.938 166.379 206.319 166.938 206.882Z" fill="#FFB7B7"/>
        <path d="M227.245 318.653H221.162L218.268 295.312L227.246 295.312L227.245 318.653Z" fill="#FFB7B7"/>
        <path d="M228.796 324.519L209.182 324.518V324.272C209.182 322.257 209.986 320.326 211.418 318.902C212.85 317.477 214.791 316.677 216.816 316.677H216.817L228.796 316.678L228.796 324.519Z" fill="#2F2E41"/>
        <path d="M172.01 318.519L166.416 316.141L172.972 293.545L181.228 297.054L172.01 318.519Z" fill="#FFB7B7"/>
        <path d="M171.12 324.519L153.083 316.853L153.181 316.627C153.976 314.774 155.479 313.312 157.358 312.562C159.237 311.812 161.338 311.835 163.2 312.626L163.201 312.626L174.217 317.308L171.12 324.519Z" fill="#2F2E41"/>
        <path d="M197.678 211.939L197.238 219.03L210.096 220.399L223.549 221.831L219.589 211.063L197.678 211.939Z" fill="#FFB7B7"/>
        <path d="M196.833 219.121L191.838 184.48L200.496 181.657L203.038 178.188L215.413 178.916L217.229 182.964L223.828 186.066L222.814 204.801L223.553 220.473L196.833 219.121Z" fill="#2F2E41"/>
        <path d="M193.689 209.838L184.883 206.333L184.92 206.177C184.958 206.02 188.706 190.438 189.204 187.934C189.722 185.326 191.616 184.604 191.697 184.575L191.756 184.553L195.241 185.609L196.771 197.573L193.689 209.838Z" fill="#2F2E41"/>
        <path d="M176.541 314.416L164.818 312.024L183.554 260.592L189.966 243.05C189.966 243.05 194.033 228.984 195.871 223.541L196.98 216.237L223.23 219.128C223.23 219.128 230.562 229.84 228.334 247.299L229.342 312.921L217.619 313.519L207.8 247.336L190.567 283.617C190.567 283.617 185.136 299.1 181.25 302.456L176.541 314.416Z" fill="#2F2E41"/>
        <path d="M212.703 221.564C212.909 221.559 213.116 221.57 213.32 221.598L225.567 207.796L224.142 203.554L230.296 200.578L233.552 207.844C233.815 208.431 233.879 209.087 233.736 209.713C233.592 210.34 233.248 210.903 232.755 211.319L216.692 224.859C216.815 225.64 216.695 226.441 216.349 227.153C216.003 227.866 215.447 228.457 214.756 228.847C214.064 229.238 213.269 229.41 212.477 229.34C211.684 229.27 210.932 228.962 210.32 228.457C209.708 227.951 209.265 227.273 209.051 226.511C208.836 225.749 208.859 224.94 209.118 224.192C209.377 223.443 209.858 222.791 210.499 222.322C211.139 221.852 211.908 221.588 212.703 221.564Z" fill="#FFB7B7"/>
        <path d="M224.589 209.139L219.48 197.185L221.473 188.858L223.62 186.16C223.777 186.093 223.946 186.059 224.117 186.061C224.288 186.062 224.457 186.099 224.613 186.169C225.405 186.486 226.079 187.457 226.617 189.057L231.405 202.623L224.589 209.139Z" fill="#2F2E41"/>
        <path d="M198.085 173.758V164.746C198.085 161.543 199.364 158.471 201.641 156.206C203.917 153.941 207.005 152.669 210.224 152.669C213.444 152.669 216.532 153.941 218.808 156.206C221.085 158.471 222.364 161.543 222.364 164.746V173.758C222.363 174.188 222.191 174.6 221.886 174.905C221.58 175.209 221.165 175.38 220.733 175.38H199.716C199.283 175.38 198.869 175.209 198.563 174.905C198.257 174.6 198.085 174.188 198.085 173.758Z" fill="#2F2E41"/>
        <path d="M207.73 175.17C212.645 175.17 216.63 171.206 216.63 166.316C216.63 161.426 212.645 157.462 207.73 157.462C202.814 157.462 198.83 161.426 198.83 166.316C198.83 171.206 202.814 175.17 207.73 175.17Z" fill="#FFB7B7"/>
        <path d="M195.213 165.467C195.216 162.934 196.229 160.506 198.029 158.715C199.829 156.924 202.27 155.916 204.816 155.914H206.628C209.174 155.916 211.615 156.924 213.415 158.715C215.215 160.506 216.228 162.934 216.231 165.467V165.647H212.402L211.096 162.009L210.835 165.647H208.856L208.197 163.811L208.065 165.647H195.213L195.213 165.467Z" fill="#2F2E41"/>
        <path d="M206.854 176.394C206.674 176.152 206.567 175.864 206.544 175.564C206.522 175.263 206.585 174.963 206.726 174.697C208.646 171.064 211.335 164.351 207.766 160.21L207.51 159.913H217.869V175.385L208.459 177.037C208.363 177.054 208.267 177.063 208.17 177.063C207.913 177.063 207.66 177.002 207.431 176.886C207.202 176.769 207.005 176.601 206.854 176.394Z" fill="#2F2E41"/>
        <path d="M86.0117 313.555L91.5089 315.509L101.703 295.345L93.5894 292.46L86.0117 313.555Z" fill="#9F616A"/>
        <path d="M82.7048 318.358L85.2508 311.271L96.077 315.12C97.9055 315.772 99.3991 317.119 100.23 318.866C101.062 320.613 101.162 322.616 100.511 324.437L100.431 324.66L82.7048 318.358Z" fill="#2F2E41"/>
        <path d="M121.759 318.964L127.597 318.963L130.375 296.563L121.758 296.563L121.759 318.964Z" fill="#9F616A"/>
        <path d="M120.27 317.068L131.767 317.067H131.767C132.729 317.067 133.682 317.256 134.571 317.622C135.46 317.988 136.268 318.525 136.948 319.202C137.628 319.879 138.168 320.682 138.536 321.567C138.905 322.451 139.094 323.399 139.094 324.356V324.593L120.27 324.594L120.27 317.068Z" fill="#2F2E41"/>
        <path d="M108.455 175.849L110.993 170.858C110.993 170.858 120.452 173.216 121.311 178.669L108.455 175.849Z" fill="#F1F1F1"/>
        <path d="M97.9787 232.915L104.883 271.245L86.55 303.499L97.5023 307.763L116.073 276.497L118.454 267.97L119.883 312.5L129.76 312.202L134.289 270.622L127.025 231.968L97.9787 232.915Z" fill="#2F2E41"/>
        <path d="M111.085 241.977C100.942 241.977 94.5021 240.047 94.3578 240.016L94.1243 239.967L99.4075 215.598L99.6453 193.121C99.6453 183.596 105.947 176.573 106.821 175.925C106.969 175.347 107.241 174.808 107.619 174.345C107.998 173.882 108.473 173.507 109.012 173.246C111.114 172.298 113.683 173.436 113.791 173.485L121.501 176.361L121.537 176.467C121.63 176.74 131.785 209.904 131.785 209.904C131.785 209.904 131.17 238.881 130.956 239.83C130.956 239.83 116.721 241.977 111.085 241.977Z" fill="#3F3D56"/>
        <path d="M118.879 169.287C124.634 169.287 129.299 164.646 129.299 158.921C129.299 153.195 124.634 148.554 118.879 148.554C113.124 148.554 108.459 153.195 108.459 158.921C108.459 164.646 113.124 169.287 118.879 169.287Z" fill="#9F616A"/>
        <path opacity="0.2" d="M107.261 194.959L125.491 220.263L128.183 208.446L107.261 194.959Z" fill="black"/>
        <path d="M164.415 212.176C163.903 212.579 163.307 212.866 162.671 213.016C162.035 213.166 161.374 213.175 160.733 213.043C160.093 212.911 159.49 212.641 158.966 212.252C158.442 211.863 158.011 211.364 157.701 210.791L142.01 213.29L145.41 205.803L159.789 204.578C160.791 204.125 161.925 204.054 162.977 204.377C164.028 204.7 164.924 205.396 165.494 206.333C166.065 207.269 166.27 208.381 166.071 209.458C165.872 210.535 165.283 211.502 164.415 212.176H164.415Z" fill="#9F616A"/>
        <path d="M146.218 205.377L151.856 204.827L153.418 212.651L146.324 212.776L146.218 205.377Z" fill="#F1F1F1"/>
        <path d="M150.84 215.377L123.227 212.931L109.284 190.872L109.242 190.677C108.846 188.875 109.123 186.992 110.021 185.378C110.919 183.764 112.377 182.531 114.122 181.908C115.867 181.286 117.781 181.316 119.505 181.994C121.229 182.672 122.647 183.951 123.492 185.592L131.677 201.475L148.195 203.959L150.84 215.377Z" fill="#3F3D56"/>
        <path d="M110.003 167.921L118.652 168.23C119.179 168.249 120.61 162.588 120.798 161.414C120.946 160.65 121.368 159.965 121.987 159.488C122.605 159.011 123.377 158.774 124.158 158.822C124.805 158.883 126.438 157.679 128.122 156.255C131.321 153.549 131.154 148.469 127.641 146.183C127.545 146.121 127.451 146.064 127.358 146.012C125.142 144.778 122.549 144.364 120.009 144.332C117.707 144.303 115.339 144.592 113.311 145.676C109.675 147.619 107.739 151.867 107.569 155.97C107.399 160.073 108.722 164.085 110.222 167.911" fill="#2F2E41"/>
        <path d="M296.661 325H30.6417C30.5468 325 30.4558 324.95 30.3887 324.861C30.3216 324.772 30.2839 324.652 30.2839 324.526C30.2839 324.401 30.3216 324.28 30.3887 324.191C30.4558 324.102 30.5468 324.052 30.6417 324.052H296.803C296.898 324.052 296.989 324.102 297.056 324.191C297.123 324.28 297.161 324.401 297.161 324.526C297.161 324.788 296.858 325 296.661 325Z" fill="#CBCBCB"/>
    </g>
    <defs>
        <clipPath id="clip0_183_1764">
            <rect width="300" height="325" fill="white"/>
        </clipPath>
    </defs>
</svg>
