<svg width="324" height="319" viewBox="0 0 324 319" fill="none" xmlns="http://www.w3.org/2000/svg">
    <g clip-path="url(#clip0_217_946)">
        <path d="M47.3446 203.5C73.4923 203.5 94.6892 182.295 94.6892 156.137C94.6892 129.979 73.4923 108.775 47.3446 108.775C21.1969 108.775 0 129.979 0 156.137C0 182.295 21.1969 203.5 47.3446 203.5Z" fill="#F2F2F2"/>
        <path d="M47.7676 158.112C58.1945 158.112 66.6471 149.656 66.6471 139.225C66.6471 128.794 58.1945 120.338 47.7676 120.338C37.3408 120.338 28.8881 128.794 28.8881 139.225C28.8881 149.656 37.3408 158.112 47.7676 158.112Z" fill="#2F2E41"/>
        <path d="M94.9457 47.4465C94.9291 56.8139 92.1362 65.966 86.9201 73.7455C81.704 81.525 74.299 87.5824 65.6416 91.1518C56.9842 94.7213 47.4631 95.6423 38.2824 93.7985C29.1017 91.9547 20.6737 87.4289 14.0642 80.7934C7.45471 74.1579 2.96054 65.7108 1.15002 56.5201C-0.660492 47.3294 0.293967 37.8081 3.8927 29.1601C7.49143 20.5121 13.5728 13.1259 21.3678 7.93543C29.1628 2.74499 38.3213 -0.0165333 47.6851 7.44712e-05C53.9071 -0.00504206 60.0687 1.21993 65.8159 3.6046C71.5631 5.98926 76.7825 9.48661 81.1743 13.8956C85.566 18.3047 89.0435 23.5385 91.4069 29.2962C93.7703 35.054 94.9729 41.2223 94.9457 47.4465Z" fill="#F2F2F2"/>
        <path d="M159.692 203.5C185.84 203.5 207.037 182.295 207.037 156.137C207.037 129.979 185.84 108.775 159.692 108.775C133.544 108.775 112.347 129.979 112.347 156.137C112.347 182.295 133.544 203.5 159.692 203.5Z" fill="#F2F2F2"/>
        <path d="M159.554 94.725C185.702 94.725 206.899 73.5201 206.899 47.3625C206.899 21.2049 185.702 0 159.554 0C133.407 0 112.21 21.2049 112.21 47.3625C112.21 73.5201 133.407 94.725 159.554 94.725Z" fill="#F2F2F2"/>
        <path d="M274.944 94.725C301.092 94.725 322.289 73.5201 322.289 47.3625C322.289 21.2049 301.092 0 274.944 0C248.797 0 227.6 21.2049 227.6 47.3625C227.6 73.5201 248.797 94.725 274.944 94.725Z" fill="#F2F2F2"/>
        <path d="M276.655 203.5C302.803 203.5 324 182.295 324 156.137C324 129.979 302.803 108.775 276.655 108.775C250.508 108.775 229.311 129.979 229.311 156.137C229.311 182.295 250.508 203.5 276.655 203.5Z" fill="#F2F2F2"/>
        <path d="M94.9458 271.637C94.9458 281.005 92.1691 290.162 86.9668 297.95C81.7645 305.739 74.3703 311.81 65.7192 315.394C57.0681 318.979 47.5487 319.917 38.3647 318.09C29.1808 316.262 20.7448 311.751 14.1235 305.128C7.50227 298.504 2.99313 290.065 1.16633 280.877C-0.660477 271.69 0.277109 262.167 3.86051 253.512C7.44391 244.858 13.5122 237.461 21.298 232.257C29.0837 227.052 38.2373 224.275 47.6012 224.275C53.8263 224.247 59.9953 225.453 65.7519 227.824C71.5086 230.194 76.7388 233.682 81.1407 238.085C85.5426 242.489 89.0289 247.721 91.3984 253.48C93.7678 259.238 94.9735 265.41 94.9458 271.637Z" fill="#F2F2F2"/>
        <path d="M162.597 319C188.744 319 209.941 297.795 209.941 271.637C209.941 245.48 188.744 224.275 162.597 224.275C136.449 224.275 115.252 245.48 115.252 271.637C115.252 297.795 136.449 319 162.597 319Z" fill="#F2F2F2"/>
        <path d="M25.6574 31.9555C27.6151 25.7141 32.0669 19.9897 38.2237 17.8798C44.3809 15.7698 53.3965 18.9839 58.0252 23.5988C66.4922 32.0404 68.5585 61.0401 62.7413 70.2043C61.5843 70.143 57.5917 70.0977 56.4206 70.0538L54.764 64.5303V69.9994C52.8983 69.9417 51.0181 69.9019 49.1232 69.8799C42.7701 69.8011 36.6949 67.2613 32.1749 62.7944C27.6549 58.3275 25.0421 52.2814 24.8858 45.9273C24.7342 39.8487 24.8859 34.4151 25.6574 31.9555Z" fill="#2F2E41"/>
        <path d="M46.899 52.6411C54.3509 52.6411 60.3919 46.5978 60.3919 39.1431C60.3919 31.6883 54.3509 25.6451 46.899 25.6451C39.4471 25.6451 33.4061 31.6883 33.4061 39.1431C33.4061 46.5978 39.4471 52.6411 46.899 52.6411Z" fill="#9E616A"/>
        <path d="M35.2542 27.2886L50.79 19.5065C53.9662 20.9383 56.7016 23.1941 58.7126 26.0399C60.7236 28.8857 61.937 32.2179 62.2268 35.6909L62.6141 40.3311L56.1084 38.6744L55.3957 32.7411L54.2909 38.2116L51.2887 37.4474L51.3172 28.2359L48.313 37.4408L37.5901 34.9763L35.2542 27.2886Z" fill="#2F2E41"/>
        <path d="M146.691 138.365C150.383 138.365 153.375 135.371 153.375 131.678C153.375 127.985 150.383 124.992 146.691 124.992C142.999 124.992 140.007 127.985 140.007 131.678C140.007 135.371 142.999 138.365 146.691 138.365Z" fill="#2F2E41"/>
        <path d="M157.386 163.775C166.738 163.775 174.319 156.191 174.319 146.835C174.319 137.479 166.738 129.895 157.386 129.895C148.034 129.895 140.452 137.479 140.452 146.835C140.452 156.191 148.034 163.775 157.386 163.775Z" fill="#2F2E41"/>
        <path d="M158.787 163.771C166.387 163.771 172.547 157.608 172.547 150.005C172.547 142.403 166.387 136.24 158.787 136.24C151.187 136.24 145.027 142.403 145.027 150.005C145.027 157.608 151.187 163.771 158.787 163.771Z" fill="#9E616A"/>
        <path d="M168.132 135.973C165.72 134.503 162.959 133.707 160.135 133.67C157.311 133.633 154.529 134.355 152.08 135.761C149.631 137.168 147.604 139.207 146.213 141.665C144.821 144.123 144.114 146.91 144.168 149.734C151.179 151.495 158.546 152.843 166.023 150.156L167.789 145.832L168.83 150.159C171.107 151.09 173.39 151.878 175.673 150.15C175.766 147.333 175.119 144.542 173.795 142.054C172.472 139.566 170.519 137.469 168.132 135.973Z" fill="#2F2E41"/>
        <path d="M140.468 113.526C135.845 111.406 130.046 112.401 126.197 115.725C122.349 119.05 120.519 124.46 121.262 129.493C122.02 134.626 125.14 139.047 128.015 143.366C130.891 147.685 133.7 152.417 133.697 157.606C133.695 161.344 132.211 164.928 129.571 167.573C126.931 170.218 123.35 171.707 119.614 171.714C123.999 173.603 128.576 175.528 133.344 175.304C138.113 175.081 143.112 172.014 143.89 167.302C144.45 163.906 142.785 160.596 141.396 157.447C139.134 152.317 137.499 146.933 136.527 141.411C136.063 138.776 135.761 136.005 136.62 133.471C137.304 131.593 138.573 129.984 140.24 128.882C141.907 127.781 143.884 127.244 145.879 127.352L147.455 125.934C148.156 120.895 145.09 115.646 140.468 113.526Z" fill="#2F2E41"/>
        <path d="M255.622 28.8369C254.972 32.3294 253.907 35.7314 252.448 38.9705C244.097 56.6449 267.881 50.884 276.38 50.884C285.673 50.884 294.565 55.7725 293.207 34.0511C292.627 24.7726 285.673 17.2182 276.38 17.2182C268.442 17.2182 257.282 20.7477 255.622 28.8369Z" fill="#2F2E41"/>
        <path d="M274.988 50.8798C282.539 50.8798 288.661 44.7557 288.661 37.2012C288.661 29.6467 282.539 23.5226 274.988 23.5226C267.436 23.5226 261.314 29.6467 261.314 37.2012C261.314 44.7557 267.436 50.8798 274.988 50.8798Z" fill="#FFB6B6"/>
        <path d="M265.702 23.2577C268.098 21.7965 270.843 21.006 273.649 20.969C276.454 20.932 279.219 21.6498 281.652 23.0473C284.086 24.4449 286.1 26.4709 287.483 28.9134C288.866 31.356 289.568 34.1254 289.515 36.9321C282.547 38.6821 275.228 40.0212 267.798 37.3507L266.043 33.0546L265.008 37.3539C262.746 38.2791 260.477 39.0619 258.208 37.3449C258.116 34.5461 258.759 31.772 260.074 29.2999C261.389 26.8278 263.33 24.7443 265.702 23.2577Z" fill="#2F2E41"/>
        <path d="M47.7753 160.593C57.0901 160.593 64.6412 153.039 64.6412 143.72C64.6412 134.402 57.0901 126.848 47.7753 126.848C38.4605 126.848 30.9094 134.402 30.9094 143.72C30.9094 153.039 38.4605 160.593 47.7753 160.593Z" fill="#FFB8B8"/>
        <path d="M161.555 276.55C169.487 276.55 175.918 270.117 175.918 262.182C175.918 254.246 169.487 247.813 161.555 247.813C153.622 247.813 147.191 254.246 147.191 262.182C147.191 270.117 153.622 276.55 161.555 276.55Z" fill="#9E616A"/>
        <path d="M161.484 52.1938C170.01 52.1938 176.922 45.2793 176.922 36.7497C176.922 28.2202 170.01 21.3057 161.484 21.3057C152.958 21.3057 146.046 28.2202 146.046 36.7497C146.046 45.2793 152.958 52.1938 161.484 52.1938Z" fill="#FFB8B8"/>
        <path d="M175.077 26.5471C175.077 26.5471 179.096 18.86 170.253 18.1611C170.253 18.1611 162.714 11.3198 155.03 16.9104C155.03 16.9104 150.839 16.9104 148.547 21.6553C148.547 21.6553 145.25 20.4046 144.526 23.7518C144.526 23.7518 142.114 30.7401 144.526 37.0295C146.938 43.319 147.739 44.0179 147.739 44.0179C147.739 44.0179 146.047 36.213 155.695 35.5141C165.343 34.8153 174.194 28.769 174.998 36.4561C175.802 44.1432 176.686 40.6707 176.686 40.6707C176.686 40.6707 184.322 29.6918 175.077 26.5471Z" fill="#2F2E41"/>
        <path d="M275.349 162.004C283.695 162.004 290.462 155.235 290.462 146.886C290.462 138.536 283.695 131.767 275.349 131.767C267.002 131.767 260.236 138.536 260.236 146.886C260.236 155.235 267.002 162.004 275.349 162.004Z" fill="#FFB6B6"/>
        <path d="M66.9641 260.305L66.7299 260.727C68.815 255.587 66.9189 249.252 63.1993 245.376C59.4798 241.5 54.3088 239.727 49.2171 239.024C45.4373 238.502 41.5139 238.518 37.9198 239.903C32.7152 241.908 28.7388 246.551 25.4188 251.382C23.9002 253.591 22.4071 256.11 22.5583 258.871C22.6988 261.433 24.2192 263.608 25.4644 265.782C26.7097 267.956 27.7496 270.653 26.8559 273.026C26.3233 274.44 25.1978 275.459 24.2846 276.615C23.3713 277.772 22.6201 279.336 23.0612 280.787C23.2571 281.342 23.5935 281.837 24.0378 282.223C24.4821 282.61 25.0189 282.874 25.5959 282.991C26.6999 283.248 27.8452 283.08 28.9633 282.911L57.9859 278.524C59.9581 278.226 61.8289 277.455 63.4389 276.278C65.0489 275.1 66.3503 273.55 67.2322 271.761C68.1141 269.971 68.5503 267.994 68.5036 266C68.457 264.005 67.9288 262.051 66.9641 260.305Z" fill="#2F2E41"/>
        <path d="M59.3831 266.401C60.6384 258.662 55.3851 251.371 47.6495 250.115C39.914 248.859 32.6254 254.114 31.3701 261.853C30.1148 269.591 35.3681 276.883 43.1037 278.139C50.8392 279.394 58.1278 274.139 59.3831 266.401Z" fill="#FFB9B9"/>
        <path d="M83.1514 302.909C74.9491 312.245 63.4056 317.981 51.0129 318.877C38.6201 319.773 26.3723 315.757 16.9132 307.698L20.9741 296.362C21.8917 294.349 23.3399 292.623 25.1633 291.371C26.9867 290.118 29.1166 289.386 31.3244 289.252L33.9079 289.093L40.068 283.778C40.068 283.778 56.6661 283.186 56.4199 282.902L66.474 288.951L66.4656 288.91L70.4179 289.152C72.626 289.285 74.756 290.017 76.5795 291.27C78.403 292.523 79.8511 294.248 80.7683 296.262L83.1514 302.909Z" fill="#326789"/>
        <path d="M197.506 302.909C189.304 312.245 177.76 317.981 165.368 318.877C152.975 319.773 140.727 315.757 131.268 307.698L135.329 296.362C136.247 294.349 137.695 292.623 139.518 291.371C141.342 290.118 143.471 289.386 145.679 289.252L148.263 289.093L154.423 283.778C154.423 283.778 171.021 283.186 170.775 282.902L180.829 288.951L180.82 288.91L184.773 289.152C186.981 289.285 189.111 290.017 190.934 291.27C192.758 292.523 194.206 294.248 195.123 296.262L197.506 302.909Z" fill="#326789"/>
        <path d="M58.8359 250.952C58.4696 249.014 56.4933 248.127 54.8 247.697C49.8885 246.444 44.7793 246.163 39.7601 246.871C36.1012 247.393 32.3555 248.544 29.7006 251.401C27.5599 253.807 26.3469 256.897 26.2797 260.117C26.1714 262.043 26.6015 263.96 27.5216 265.655C28.477 267.273 30.1054 268.446 31.7864 268.405L31.9567 268.997C39.0809 268.004 45.6986 263.57 49.8665 256.996C49.0843 259.79 47.5276 262.306 45.3764 264.253C50.1862 262.327 54.3671 259.104 57.4534 254.941C58.2962 253.822 59.1145 252.427 58.8359 250.952Z" fill="#2F2E41"/>
        <path d="M82.734 187.258C74.5317 196.595 62.9883 202.33 50.5955 203.226C38.2028 204.122 25.9549 200.107 16.4958 192.047L20.5567 180.712C21.4744 178.698 22.9226 176.973 24.746 175.72C26.5694 174.468 28.6992 173.735 30.9071 173.601L33.4905 173.443L39.6506 168.128C39.6506 168.128 56.2488 167.535 56.0025 167.251L66.0566 173.301L66.0482 173.259L70.0006 173.501C72.2086 173.634 74.3387 174.367 76.1622 175.619C77.9857 176.872 79.4337 178.598 80.351 180.611L82.734 187.258Z" fill="#326789"/>
        <path d="M195.315 187.826C187.113 197.163 175.569 202.898 163.177 203.794C150.784 204.69 138.536 200.675 129.077 192.615L133.138 181.28C134.056 179.266 135.504 177.541 137.327 176.288C139.151 175.036 141.28 174.303 143.488 174.169L146.072 174.011L152.232 168.696C152.232 168.696 168.83 168.103 168.584 167.819L178.638 173.869L178.629 173.827L182.582 174.069C184.79 174.202 186.92 174.935 188.743 176.187C190.567 177.44 192.015 179.166 192.932 181.179L195.315 187.826Z" fill="#326789"/>
        <path d="M312.174 187.826C303.972 197.163 292.428 202.898 280.036 203.794C267.643 204.69 255.395 200.675 245.936 192.615L249.997 181.28C250.915 179.266 252.363 177.541 254.186 176.288C256.01 175.036 258.139 174.303 260.347 174.169L262.931 174.011L269.091 168.696C269.091 168.696 285.689 168.103 285.443 167.819L295.497 173.869L295.488 173.827L299.441 174.069C301.649 174.202 303.779 174.935 305.602 176.187C307.426 177.44 308.874 179.166 309.791 181.179L312.174 187.826Z" fill="#326789"/>
        <path d="M82.734 78.7051C74.5317 88.0416 62.9883 93.7769 50.5955 94.6728C38.2028 95.5688 25.9549 91.5536 16.4958 83.494L20.5567 72.1585C21.4744 70.1452 22.9226 68.4197 24.746 67.1671C26.5694 65.9145 28.6992 65.1821 30.9071 65.0483L33.4905 64.8896L39.6506 59.5747C39.6506 59.5747 56.2488 58.9818 56.0025 58.6979L66.0566 64.7477L66.0482 64.7059L70.0006 64.9481C72.2086 65.0813 74.3387 65.8135 76.1622 67.0662C77.9857 68.3188 79.4337 70.0446 80.351 72.0583L82.734 78.7051Z" fill="#326789"/>
        <path d="M194.898 78.8556C186.696 88.1921 175.152 93.9274 162.759 94.8234C150.367 95.7194 138.119 91.7041 128.66 83.6445L132.721 72.3091C133.638 70.2957 135.086 68.5703 136.91 67.3177C138.733 66.0651 140.863 65.3326 143.071 65.1988L145.654 65.0402L151.815 59.7253C151.815 59.7253 168.413 59.1324 168.166 58.8485L178.22 64.8982L178.212 64.8565L182.164 65.0986C184.373 65.2319 186.503 65.9641 188.326 67.2167C190.15 68.4694 191.598 70.1952 192.515 72.2089L194.898 78.8556Z" fill="#326789"/>
        <path d="M311.757 78.8556C303.555 88.1921 292.011 93.9274 279.618 94.8234C267.226 95.7194 254.978 91.7041 245.519 83.6445L249.58 72.3091C250.497 70.2957 251.945 68.5703 253.769 67.3177C255.592 66.0651 257.722 65.3326 259.93 65.1988L262.513 65.0402L268.674 59.7253C268.674 59.7253 285.272 59.1324 285.025 58.8485L295.079 64.8982L295.071 64.8565L299.023 65.0986C301.232 65.2319 303.362 65.9641 305.185 67.2167C307.009 68.4694 308.457 70.1952 309.374 72.2089L311.757 78.8556Z" fill="#326789"/>
        <path d="M291.288 137.509C290.011 132.937 287.109 128.987 283.128 126.403C279.955 124.373 275.996 123.336 272.401 124.41C268.807 125.484 265.831 129.013 266.066 132.825C264.768 132.384 263.293 132.971 262.344 133.975C261.394 134.979 260.883 136.33 260.517 137.674C259.364 141.949 259.44 146.463 260.738 150.696L260.666 151.304C262.42 151.014 263.75 149.509 264.577 147.905C265.405 146.301 265.881 144.522 266.777 142.957C267.674 141.393 269.162 139.997 270.938 139.948L270.782 142.664C272.31 141.877 273.838 141.089 275.366 140.302C275.002 141.171 274.639 142.041 274.275 142.911C275.61 142.353 276.944 141.795 278.278 141.237C278.129 142.073 277.98 142.91 277.831 143.746C279.154 140.733 283.247 139.409 286.031 141.094C287.648 142.072 288.709 143.816 289.267 145.647C289.825 147.478 289.935 149.415 290.042 151.33C292.103 147.023 292.546 142.116 291.288 137.509Z" fill="#2F2E41"/>
        <path d="M148.505 268.825C148.476 268.746 148.451 268.667 148.423 268.588C148.367 268.637 148.314 268.687 148.254 268.733L148.505 268.825Z" fill="#2F2E41"/>
        <path d="M178.76 257.07C178.686 255.612 178.305 254.186 177.64 252.887C176.975 251.587 176.043 250.443 174.904 249.53C174.067 248.868 173.099 248.309 172.545 247.396C172.229 246.75 171.961 246.082 171.743 245.397C170.64 242.771 167.498 241.376 164.679 241.773C161.86 242.171 159.421 244.068 157.778 246.393C156.968 246.005 156.065 245.857 155.174 245.967C154.283 246.077 153.442 246.44 152.751 247.013C152.059 247.586 151.547 248.345 151.274 249.201C151 250.056 150.978 250.972 151.209 251.84C149.749 250.664 147.388 251.605 146.477 253.243C145.566 254.882 145.71 256.887 145.981 258.743C146.472 262.096 147.289 265.393 148.422 268.588C149.843 267.336 149.756 265.055 149.582 263.128C149.402 261.125 149.51 258.681 151.26 257.692C152.952 256.738 155.004 257.786 156.869 258.328C158.343 258.746 159.89 258.839 161.404 258.601C162.918 258.362 164.362 257.799 165.637 256.948C166.608 256.291 167.473 255.467 168.52 254.939C169.567 254.411 170.899 254.227 171.874 254.879C172.765 255.475 173.127 256.586 173.43 257.613C174.147 260.049 174.865 262.485 175.583 264.92C176.637 263.911 177.465 262.689 178.013 261.336C178.561 259.983 178.815 258.529 178.76 257.07Z" fill="#2F2E41"/>
        <path d="M65.5691 137.803C65.6874 136.544 65.7416 135.279 65.7315 134.014C65.8004 131.511 65.3421 129.023 64.3865 126.709C63.2111 124.148 61.1154 122.122 58.5158 121.036C55.9392 119.996 53.0596 119.998 50.4849 121.043C48.1602 119.573 45.5773 118.409 42.8572 118.264C40.137 118.12 37.261 119.13 35.5848 121.352C35.2104 121.938 34.7853 122.491 34.3142 123.003C32.9667 124.251 30.919 124.071 29.128 123.816C29.9313 124.505 30.7348 125.194 31.5385 125.882C30.5661 126.136 29.5936 126.391 28.6211 126.645C29.7559 127.333 30.8906 128.022 32.0253 128.71C28.731 130.688 27.2336 135.006 27.6292 138.927C28.0034 142.639 29.795 146.034 31.9367 149.051C32.791 147.248 32.6069 145.089 32.5928 143.058C32.585 142.399 32.6252 141.741 32.7131 141.088C39.9511 142.823 47.5139 143.937 55.1835 141.18L56.7227 137.412C56.9387 137.434 57.1548 137.455 57.3707 137.478L58.2624 141.184C60.284 142.011 62.3099 142.733 64.3366 141.974C64.4352 142.546 64.4946 143.13 64.5402 143.692C64.7141 143.02 64.865 142.344 65.0011 141.664C65.269 141.521 65.5255 141.357 65.7685 141.174C65.8174 140.047 65.7506 138.917 65.5691 137.803Z" fill="#2F2E41"/>
    </g>
    <defs>
        <clipPath id="clip0_217_946">
            <rect width="324" height="319" fill="white"/>
        </clipPath>
    </defs>
</svg>
