<svg width="24" height="25" viewBox="0 0 24 25" fill="none" xmlns="http://www.w3.org/2000/svg">
    <path d="M5.84279 5.06789C9.2432 1.66748 14.7564 1.66748 18.1568 5.06789C21.5572 8.4683 21.5572 13.9815 18.1568 17.3819L16.9698 18.5558C16.0949 19.4144 14.9598 20.5184 13.5639 21.8679C12.6917 22.7113 11.3079 22.7112 10.4358 21.8677L6.94466 18.4718C6.5059 18.041 6.13863 17.6777 5.84279 17.3819C2.44238 13.9815 2.44238 8.4683 5.84279 5.06789ZM17.0961 6.12855C14.2815 3.31392 9.71807 3.31392 6.90345 6.12855C4.08882 8.94317 4.08882 13.5066 6.90345 16.3212L8.39052 17.7887C9.20943 18.5901 10.2389 19.5905 11.4786 20.7895C11.7693 21.0706 12.2305 21.0707 12.5213 20.7896L15.9162 17.4881C16.3851 17.0278 16.7785 16.6388 17.0961 16.3212C19.9107 13.5066 19.9107 8.94317 17.0961 6.12855ZM11.9998 8.49854C13.6575 8.49854 15.0013 9.84238 15.0013 11.5001C15.0013 13.1578 13.6575 14.5016 11.9998 14.5016C10.3421 14.5016 8.99823 13.1578 8.99823 11.5001C8.99823 9.84238 10.3421 8.49854 11.9998 8.49854ZM11.9998 9.99854C11.1705 9.99854 10.4982 10.6708 10.4982 11.5001C10.4982 12.3294 11.1705 13.0016 11.9998 13.0016C12.8291 13.0016 13.5013 12.3294 13.5013 11.5001C13.5013 10.6708 12.8291 9.99854 11.9998 9.99854Z" fill="#666666"/>
</svg>
