<svg width="65" height="64" viewBox="0 0 65 64" fill="none" xmlns="http://www.w3.org/2000/svg">
    <path d="M33.8327 27.333C33.8327 26.2284 34.7281 25.333 35.8327 25.333H45.166C46.2705 25.333 47.166 26.2284 47.166 27.333C47.166 28.4375 46.2705 29.333 45.166 29.333H35.8327C34.7281 29.333 33.8327 28.4375 33.8327 27.333ZM35.833 39.9997C34.7281 39.9997 33.833 40.8951 33.833 41.9997C33.833 43.1042 34.7281 43.9997 35.833 43.9997H45.1658C46.2706 43.9997 47.1658 43.1042 47.1658 41.9997C47.1658 40.8951 46.2706 39.9997 45.1658 39.9997H35.833ZM29.2468 26.0806C30.0279 25.2995 30.0279 24.0332 29.2468 23.2521C28.4657 22.4711 27.1996 22.4711 26.4185 23.2521L22.4993 27.1711L21.2469 25.9188C20.4659 25.1378 19.1995 25.1378 18.4185 25.9188C17.6374 26.6999 17.6374 27.9661 18.4185 28.7471L21.0851 31.4138C21.8662 32.1949 23.1325 32.1949 23.9136 31.4138L29.2468 26.0806ZM29.2468 37.9189C30.0279 38.6999 30.0279 39.9661 29.2468 40.7471L23.9136 46.0805C23.1325 46.8615 21.8662 46.8615 21.0851 46.0805L18.4185 43.4138C17.6374 42.6327 17.6374 41.3666 18.4185 40.5855C19.1995 39.8045 20.4659 39.8045 21.2469 40.5855L22.4993 41.8378L26.4185 37.9189C27.1996 37.1378 28.4657 37.1378 29.2468 37.9189ZM43.15 10.8916C42.9242 7.78402 40.3314 5.33301 37.166 5.33301H27.8327C24.7448 5.33301 22.2018 7.66559 21.8695 10.6648L17.166 10.6663C13.8523 10.6663 11.166 13.3526 11.166 16.6663V52.6663C11.166 55.9799 13.8523 58.6663 17.166 58.6663H47.8327C51.1463 58.6663 53.8327 55.9799 53.8327 52.6663V16.6663C53.8327 13.3526 51.1463 10.6663 47.8327 10.6663L43.1292 10.6648C43.1375 10.74 43.1444 10.8156 43.15 10.8916ZM43.1521 10.9222L43.166 11.333C43.166 11.1949 43.1615 11.0579 43.1521 10.9222ZM27.8327 17.333H37.166C39.246 17.333 41.0791 16.2745 42.1553 14.6668L47.8327 14.6663C48.9372 14.6663 49.8327 15.5618 49.8327 16.6663V52.6663C49.8327 53.7709 48.9372 54.6663 47.8327 54.6663H17.166C16.0615 54.6663 15.166 53.7709 15.166 52.6663V16.6663C15.166 15.5618 16.0615 14.6663 17.166 14.6663L22.8434 14.6669C23.9198 16.2746 25.7526 17.333 27.8327 17.333ZM27.8327 9.33301H37.166C38.2705 9.33301 39.166 10.2284 39.166 11.333C39.166 12.4376 38.2705 13.333 37.166 13.333H27.8327C26.7281 13.333 25.8327 12.4376 25.8327 11.333C25.8327 10.2284 26.7281 9.33301 27.8327 9.33301Z" fill="#326789"/>
</svg>
