<svg width="1440" height="95" viewBox="0 0 1440 95" fill="none" xmlns="http://www.w3.org/2000/svg">
  <path fill-rule="evenodd" clip-rule="evenodd" d="M1440 79.1667L1380 76.5278C1320 73.8889 1200 68.6111 1080 60.6944C960 52.7778 840 42.2222 720 39.5833C600 36.9444 480 42.2222 360 52.7778C240 63.3333 120 79.1667 59.9999 87.0833L-5.72205e-05 95V1.90735e-06H59.9999C120 1.90735e-06 240 1.90735e-06 360 1.90735e-06C480 1.90735e-06 600 1.90735e-06 720 1.90735e-06C840 1.90735e-06 960 1.90735e-06 1080 1.90735e-06C1200 1.90735e-06 1320 1.90735e-06 1380 1.90735e-06L1440 1.90735e-06V79.1667Z" fill="#f9fbfc"/>
</svg>
